PathFileType	4	(X/Y/Z)	 s09c0202.trc
DataRate	CameraRate	NumFrames	NumMarkers	Units	OrigDataRate	OrigDataStartFrame	OrigNumFrames
200	200	7	50	mm	200	251	2000
Frame#	Time	racr			lacr			c7			jug			rlel			rdr			llel			ldr			s2			lic			ric			lasi			rasi			rpsi			lpsi			rgt			lgt			rth1			rth2			rth3			rth4			rlfc			rmfc			rsh1			rsh2			rsh3			rsh4			rlmal			rmmal			rcal			rtoe			rmt5			lth1			lth2			lth4			lth3			llfc			lmfc			llmal			lmmal			lcal			lmt5			lsh1			lsh2			lsh3			lsh4			ltoe			SBIKE			LBIKE			RBIKE			
		X1	Y1	Z1	X2	Y2	Z2	X3	Y3	Z3	X4	Y4	Z4	X5	Y5	Z5	X6	Y6	Z6	X7	Y7	Z7	X8	Y8	Z8	X9	Y9	Z9	X10	Y10	Z10	X11	Y11	Z11	X12	Y12	Z12	X13	Y13	Z13	X14	Y14	Z14	X15	Y15	Z15	X16	Y16	Z16	X17	Y17	Z17	X18	Y18	Z18	X19	Y19	Z19	X20	Y20	Z20	X21	Y21	Z21	X22	Y22	Z22	X23	Y23	Z23	X24	Y24	Z24	X25	Y25	Z25	X26	Y26	Z26	X27	Y27	Z27	X28	Y28	Z28	X29	Y29	Z29	X30	Y30	Z30	X31	Y31	Z31	X32	Y32	Z32	X33	Y33	Z33	X34	Y34	Z34	X35	Y35	Z35	X36	Y36	Z36	X37	Y37	Z37	X38	Y38	Z38	X39	Y39	Z39	X40	Y40	Z40	X41	Y41	Z41	X42	Y42	Z42	X43	Y43	Z43	X44	Y44	Z44	X45	Y45	Z45	X46	Y46	Z46	X47	Y47	Z47	X48	Y48	Z48	X49	Y49	Z49	X50	Y50	Z50	
251	1.2550	566.516144	1265.867788	-147.686233	518.572995	1260.591289	-453.952582	533.064427	1284.234572	-304.930120	513.714933	1151.563840	-294.454690	529.027103	1085.476735	34.783697	680.300391	909.432322	-45.561287	479.733572	1014.512428	-578.775586	671.684076	905.407414	-448.696846	43.118672	1136.021460	-249.618510	178.289457	1107.531896	-396.251028	186.552411	1120.879438	-104.602445	212.978757	1045.642634	-370.715215	218.347650	1059.255448	-122.229794	75.834070	1164.075869	-191.194349	76.665603	1164.677740	-300.969469	149.774894	994.439554	-50.725094	132.000530	996.124998	-435.135537	247.703248	895.497119	-60.903104	322.273979	850.812102	-73.878882	361.932045	771.347747	-77.935863	341.935739	869.641139	-98.294463	399.988784	670.642974	-111.397002	374.275002	659.971785	-209.244210	308.914469	622.567934	-78.789519	250.349094	555.657082	-90.452295	166.625074	527.940694	-86.739547	265.834133	537.066999	-122.796993	82.980611	469.750130	-85.388944	91.834567	478.420463	-163.227327	-7.959872	476.988159	-124.998051	222.598592	344.288953	-122.595821	142.141925	369.999352	-58.615125	233.340079	905.759397	-432.683763	312.951217	875.313450	-425.820700	334.399925	902.826373	-409.783279	368.697331	803.925479	-420.710144	435.371250	720.822662	-404.522166	453.473880	708.778503	-306.069587	354.786518	365.008945	-407.604462	379.565617	374.843738	-338.817486	285.449981	330.398157	-369.522334	450.256975	277.366313	-433.310529	412.673957	621.319935	-426.702735	417.402638	535.128117	-417.288629	376.590226	455.913721	-414.392745	442.495579	532.259900	-385.888644	544.465833	289.587348	-367.057814	-64.919899	852.550845	-239.079775	20.995292	84.929869	-442.107979	21.090980	84.168073	-43.712425	
252	1.2600	566.841734	1265.738746	-147.929308	518.851876	1261.412891	-454.155490	533.160188	1284.666273	-305.140278	514.088611	1152.054439	-295.045862	529.288514	1085.615282	34.745403	680.263099	909.447661	-45.303582	480.258639	1015.390876	-578.977968	671.839893	905.605108	-448.488332	43.490274	1136.002665	-249.755032	178.507848	1107.838391	-396.513111	186.978156	1120.565597	-104.923186	213.144687	1045.803233	-371.112643	218.709939	1058.979383	-122.726625	76.168662	1164.007998	-191.276797	76.865286	1164.895843	-301.031808	149.932908	993.661035	-51.094954	132.190830	996.526071	-435.570096	247.267308	894.214633	-61.302065	321.649396	849.205288	-74.286258	360.218904	769.291372	-79.225523	341.466024	867.979613	-98.632913	398.529614	669.019267	-111.970909	372.719853	658.390045	-209.811632	307.592638	620.789214	-79.198231	249.068627	553.701397	-90.756159	165.480434	525.863845	-86.979727	264.698010	535.274787	-123.059580	81.895804	467.458512	-85.518933	91.397133	474.317343	-164.739036	-9.053164	474.373986	-124.945097	221.988514	342.617626	-122.553845	141.334286	367.983041	-58.628369	233.894422	906.622278	-433.166137	313.729903	876.744487	-426.366375	334.998317	904.376514	-410.314090	369.998063	805.665632	-421.375708	437.191821	723.003775	-404.915940	455.404919	711.010565	-306.445309	355.671672	367.206166	-407.457460	379.396944	376.722442	-338.548963	286.262555	332.928038	-369.562771	450.941337	279.507528	-433.302172	414.304933	623.606663	-427.023029	418.739957	537.419397	-417.476045	377.672685	458.359668	-414.529536	443.875752	534.405713	-386.150467	545.163334	291.539807	-367.147448	-64.929567	852.558315	-239.129954	20.982096	84.925020	-442.104159	21.099077	84.158209	-43.720377	
253	1.2650	567.151222	1265.593031	-148.134218	519.140134	1262.159269	-454.284031	533.237683	1285.089746	-305.303707	514.489925	1152.475567	-295.579271	529.443400	1085.729561	34.799576	680.201087	909.495574	-44.940037	480.840753	1016.200567	-579.258097	671.987279	905.841827	-448.356025	43.833557	1135.989544	-249.882597	178.691221	1108.124590	-396.737785	187.319339	1120.081220	-105.321394	213.317254	1045.981005	-371.564566	219.022482	1058.730038	-123.240324	76.479678	1163.901421	-191.390150	77.102063	1164.979450	-301.107056	149.958791	992.823969	-51.495862	132.477562	996.881856	-435.956096	246.841863	893.009664	-61.632347	320.997996	847.477652	-74.594478	359.071190	767.337215	-79.806300	340.932894	866.346893	-98.839301	397.028855	667.093861	-112.558897	371.026961	656.690060	-210.301979	305.889516	619.038230	-79.629074	247.768486	551.675965	-91.030442	164.206350	523.626167	-87.091531	263.331287	533.208799	-123.388556	80.811222	464.967403	-85.531859	87.274167	473.688677	-165.116583	-10.276598	471.576660	-124.982725	221.375290	340.661609	-122.562637	140.642970	365.802529	-58.620818	234.450955	907.504679	-433.622660	314.550087	878.260160	-426.905722	335.575475	906.052314	-410.775172	371.304682	807.571204	-421.983001	439.112873	725.412241	-405.348679	457.389543	713.412442	-306.852786	356.671650	369.642971	-407.334494	379.226703	378.750735	-338.262718	287.107254	335.772408	-369.587841	451.658220	281.893126	-433.398858	416.087247	626.054356	-427.400557	420.187493	539.830353	-417.737017	378.877314	460.892022	-414.655392	445.343378	536.796650	-386.414834	545.965942	293.554560	-367.110917	-64.932042	852.548821	-239.177890	20.982810	84.916888	-442.104877	21.080001	84.176253	-43.750593	
254	1.2700	567.395101	1265.404719	-148.346798	519.445614	1262.759231	-454.378280	533.372854	1285.357884	-305.440562	514.842214	1152.812278	-296.155283	529.506459	1085.827672	34.899820	680.095638	909.533537	-44.622634	481.332130	1016.932203	-579.512969	672.168181	906.029338	-448.315610	44.093540	1135.946597	-249.998732	178.883897	1108.421711	-397.052063	187.659277	1119.742196	-105.673120	213.497725	1046.141088	-372.035502	219.311134	1058.491542	-123.684019	76.758982	1163.801434	-191.502618	77.313361	1165.018098	-301.164482	149.901123	992.036805	-51.920021	132.642660	997.009062	-436.422291	246.243680	891.638505	-62.179110	320.191082	845.751288	-74.938656	357.839068	765.118068	-80.510612	340.307628	864.620033	-99.074469	395.333910	665.368425	-113.330498	369.276059	654.841635	-210.762218	304.302885	617.075773	-80.053869	246.484759	549.524094	-91.228434	162.883536	521.212916	-87.270959	262.044778	531.121306	-123.644048	79.567570	462.307526	-85.683037	85.906410	471.024480	-165.193446	-11.453036	468.635282	-125.039206	220.630682	338.566678	-122.676222	139.867499	363.340452	-58.710353	235.009852	908.417461	-434.016264	315.375971	879.825812	-427.365155	336.149368	907.800252	-411.175550	372.722640	809.728234	-422.566834	441.067229	728.222006	-406.072607	459.497011	716.067046	-307.141719	357.630444	372.289025	-407.262383	379.055967	380.928609	-337.959231	287.961293	338.818802	-369.647935	452.369542	284.380523	-433.388063	417.953574	628.667981	-427.748636	421.746124	542.403891	-417.990424	380.135206	463.622765	-414.791457	446.908883	539.265495	-386.684492	546.681079	295.808489	-367.105564	-64.940166	852.537995	-239.213890	20.989803	84.958964	-442.173501	21.068189	84.179878	-43.763302	
255	1.2750	567.620891	1265.188116	-148.558814	519.747628	1263.342231	-454.643285	533.487685	1285.630669	-305.591115	515.156466	1153.049552	-296.662613	529.499283	1085.945513	35.055519	680.015793	909.578152	-44.238957	481.863172	1017.569258	-579.828310	672.328014	906.229351	-448.311383	44.324240	1135.913210	-250.086278	179.044930	1108.643462	-397.316845	188.057497	1119.383043	-105.866916	213.658398	1046.267437	-372.440433	219.565877	1058.194377	-124.170079	77.009918	1163.667439	-191.582608	77.549552	1165.025516	-301.237206	149.805446	991.171103	-52.310956	132.818129	997.347927	-436.857392	245.648930	890.315921	-62.393818	319.288340	844.060445	-75.160236	356.451611	763.217203	-80.980120	339.597275	862.834740	-99.313756	393.554950	663.391355	-113.843249	367.350650	652.993007	-211.248646	302.665140	614.927095	-80.407029	244.995861	547.213282	-91.537295	161.488213	518.614631	-87.470631	260.490934	529.024831	-123.955060	78.395218	459.556609	-85.688351	84.566950	468.253343	-165.242573	-12.782697	465.367319	-125.039197	219.982960	336.399971	-122.724079	139.055981	360.867794	-58.716083	235.613364	909.391064	-434.373011	316.244476	881.498748	-427.841852	336.771063	909.643467	-411.560542	374.243169	811.882419	-423.093730	443.196724	730.771735	-406.320848	461.684263	718.770664	-307.524052	358.642351	375.251608	-407.353736	378.885806	383.256055	-337.638984	288.872860	341.976138	-369.740698	453.133158	287.024629	-433.411185	419.900480	631.410468	-428.028138	423.370473	545.165836	-418.263594	381.427521	466.535933	-414.955699	448.460136	542.245200	-387.383210	547.442553	298.217388	-367.189837	-64.950035	852.536925	-239.245123	20.978621	84.961047	-442.196024	21.049766	84.182273	-43.781431	
256	1.2800	567.838468	1264.910707	-148.688905	520.026601	1263.880183	-454.921993	533.599397	1285.897564	-305.833374	515.463394	1153.245649	-297.212886	529.429272	1085.999958	35.218083	679.923875	909.603953	-43.911859	482.354209	1018.044663	-580.103122	672.509126	906.400600	-448.288795	44.610883	1135.830958	-250.212194	179.166293	1108.840007	-397.534743	188.337823	1119.040811	-106.197302	213.796470	1046.378335	-372.925171	219.814125	1057.817608	-124.729388	77.251078	1163.518335	-191.652176	77.813196	1165.017959	-301.321250	149.725699	990.316153	-52.664542	132.954427	997.702877	-437.229327	244.911979	888.914097	-62.820383	318.360161	842.218621	-75.480213	354.666593	761.394329	-81.426953	338.876696	861.005934	-99.428925	391.637299	661.413185	-114.375062	365.406410	651.020683	-211.646769	300.974296	612.666542	-80.622851	243.467219	544.821034	-91.795036	160.085070	515.965685	-87.646730	258.939318	526.623587	-124.290588	77.103205	456.479909	-85.726202	83.159866	465.360853	-165.266949	-14.200912	461.988557	-125.058720	219.378421	334.074722	-122.707744	138.313604	358.167620	-58.704034	236.218973	910.391466	-434.672620	317.132925	883.275024	-428.244863	337.378387	911.541705	-411.862675	375.771695	814.211338	-423.605717	445.294437	733.696325	-406.995280	463.979749	721.674097	-307.826031	359.680674	378.327102	-407.399637	378.717294	385.733064	-337.302456	289.795963	345.307616	-369.818025	453.887111	289.830163	-433.462079	421.944349	634.299277	-428.375543	425.051317	547.993370	-418.398709	382.803619	469.552324	-415.127536	450.144986	545.098308	-387.670535	548.199027	300.701592	-367.161491	-64.945045	852.537100	-239.263462	20.977815	84.978608	-442.204462	21.033733	84.188190	-43.803193	
257	1.2850	568.039310	1264.572794	-148.762613	520.226975	1264.300967	-455.104071	533.738802	1286.062558	-306.049493	515.754935	1153.409221	-297.749602	529.259907	1086.014102	35.385070	679.831637	909.541258	-43.659542	482.744550	1018.415740	-580.200115	672.670117	906.558996	-448.326327	44.840154	1135.750834	-250.278000	179.273248	1109.003836	-397.780820	188.608425	1118.682275	-106.482762	213.958607	1046.447059	-373.322051	220.074340	1057.440506	-125.248452	77.559509	1163.303867	-191.739220	78.016270	1164.991526	-301.366953	149.613279	989.435795	-53.070779	133.102444	998.014229	-437.609624	244.324449	887.358698	-63.121614	317.397581	840.454557	-75.683174	353.142275	759.332981	-81.795537	338.050325	859.033160	-99.632653	389.692352	659.287697	-114.832459	363.326749	648.963635	-211.998986	299.189415	610.325557	-80.829116	241.882031	542.275457	-92.027197	158.604285	513.139690	-87.743245	257.372610	524.110852	-124.598761	75.839628	453.207811	-85.806525	81.561693	462.261926	-165.262513	-15.490696	458.323221	-125.021819	218.612780	331.626027	-122.765616	137.452186	355.314264	-58.749133	236.870346	911.491715	-434.957244	318.075278	885.088248	-428.524276	338.026402	913.579941	-412.097820	377.510141	816.718022	-423.919275	447.565162	736.686873	-407.327383	466.314435	724.804414	-308.044183	360.696590	381.640675	-407.513220	379.025203	388.687549	-337.019001	290.653522	348.917249	-369.988394	454.587853	292.802640	-433.468367	424.097571	637.264380	-428.717284	426.845515	551.006629	-418.624673	384.217499	472.736834	-415.297787	451.910132	548.043754	-387.815000	548.990368	303.370237	-367.111696	-64.950461	852.534270	-239.296091	20.969461	84.965403	-442.217912	21.034909	84.192412	-43.817755	
